<svg fill="none" height="160" viewBox="0 0 160 160" width="160" xmlns="http://www.w3.org/2000/svg"><path d="m160 80c0-44.0467-35.953-80-80-80-44.0467 0-80 35.9533-80 80 0 44.047 35.9533 80 80 80 44.047 0 80-35.953 80-80z" fill="#fff"/><path d="m149.58 80c0-38.5-31.5-70-70-70s-70.00001 31.5-70.00001 70 31.50001 70 70.00001 70 70-31.5 70-70z" fill="#f93"/><path d="m110.58 47.5001c-4.569-.0353-9.002 1.5603-12.5 4.5-4.5-10-16-15-26.5-10.5-3.5808 1.4976-6.5682 4.1335-8.5 7.5-2.5-1-5.5-2-8.5-2-11-.5-20.5 8-20.5 19-.5 9 5.5 17 14 20l-4 30.4999c0 1 0 2 1 2.5.6844.626 1.5729.981 2.5 1h54.5c.778-.053 1.511-.386 2.062-.938.552-.551.885-1.284.938-2.062l3.5-29.4999h2c5.299-.0158 10.377-2.1281 14.125-5.8754 3.747-3.7473 5.859-8.8252 5.875-14.1246.035-2.6361-.458-5.2525-1.451-7.6948s-2.465-4.6611-4.329-6.5252c-1.864-1.8642-4.083-3.3361-6.525-4.3288s-5.059-1.4862-7.695-1.4512z" fill="#fff"/><path d="m112.08 45.5c-5 0-9.5 1.5-13 4.5-1.0356-2.5724-2.5719-4.9135-4.5196-6.8874-1.9477-1.9738-4.2681-3.5412-6.8265-4.6111-2.5583-1.0698-5.3037-1.6209-8.0768-1.6211-2.773-.0003-5.5185.5502-8.0771 1.6196-3.9828 1.5112-7.3331 4.3324-9.5 8-2.5-1.5-5.5-2-8.5-2-2.8296-.0222-5.6353.5188-8.2539 1.5914-2.6185 1.0726-4.9975 2.6555-6.9984 4.6564-2.0008 2.0008-3.5837 4.3798-4.6563 6.9983-1.0726 2.6186-1.6136 5.4243-1.5914 8.2539-.0349 4.3753 1.2947 8.6528 3.8039 12.2373s6.0731 6.2979 10.1961 7.7627l-4 32.5c-.0672.543-.0123 1.094.1607 1.613s.4597.993.8393 1.387c.6844.626 1.5729.981 2.5 1h57.5c1.5 0 3-1.5 3.5-3l4-31.5h2c2.83.0222 5.635-.5187 8.254-1.5914 2.618-1.0726 4.997-2.6554 6.998-4.6563s3.584-4.3799 4.657-6.9984c1.072-2.6185 1.613-5.4243 1.591-8.2539 0-12-10-21-22-21zm.5 36h-1.5l.5-4c.5-2-1-3.5-3-4-.917-.0684-1.827.1978-2.563.7495-.735.5516-1.246 1.3512-1.437 2.2505 0 0-1.5 11.5-2.5 22h-44c-.9282 0-1.8185.3688-2.4749 1.0251-.6563.6569-1.0251 1.5469-1.0251 2.4749s.3688 1.819 1.0251 2.475c.6564.656 1.5467 1.025 2.4749 1.025h43.5c-.5 5-1 8.5-1 10h-51.5c.5-5 3.5-27 4.5-35-3.8456 0-7.5338-1.5277-10.253-4.2469-2.7193-2.7193-4.247-6.4074-4.247-10.2531 0-3.8456 1.5277-7.5337 4.247-10.253 2.7192-2.7193 6.4074-4.247 10.253-4.247 2.1411-.038 4.2597.4422 6.1751 1.3999 1.9153.9577 3.5707 2.3644 4.8249 4.1001.5.5 1 .5 1 0 .4915-3.767 2.4451-7.1896 5.4388-9.5284s6.7872-3.4062 10.5612-2.9716c2.9738.4995 5.7384 1.8523 7.9576 3.894 2.2191 2.0416 3.7973 4.6841 4.5424 7.606l-1.5 3 6 3.5c.5719-1.8614 1.508-3.5907 2.753-5.0875 1.246-1.4969 2.776-2.7315 4.503-3.6322 1.726-.9006 3.614-1.4495 5.555-1.6147 1.94-.1652 3.894.0566 5.747.6525 1.854.5959 3.571 1.554 5.052 2.8188 1.481 1.2647 2.695 2.8109 3.574 4.5489.878 1.7379 1.403 3.633 1.543 5.5752.14 1.9423-.107 3.893-.727 5.739-1.261 2.7413-3.216 5.1057-5.672 6.8596-2.455 1.7539-5.326 2.8364-8.328 3.1404z" fill="#401c00"/></svg>